<svg version="1.1" id="Layer_1" xmlns="http://www.w3.org/2000/svg" xmlns:xlink="http://www.w3.org/1999/xlink" x="0px" y="0px"
	 width="100%" viewBox="0 0 1024 1024" enable-background="new 0 0 1024 1024" xml:space="preserve">
<path fill="#06090E" opacity="1.000000" stroke="none" 
	d="
M647.000000,1025.000000 
	C432.833344,1025.000000 219.166672,1024.988647 5.500046,1025.093628 
	C1.750776,1025.095459 0.905801,1024.249146 0.906913,1020.500000 
	C1.007246,682.166687 1.007246,343.833344 0.906913,5.500028 
	C0.905801,1.750903 1.750902,0.905800 5.500028,0.906912 
	C343.833344,1.007255 682.166687,1.007255 1020.500000,0.906912 
	C1024.249146,0.905800 1025.094360,1.750902 1025.093262,5.500027 
	C1024.992920,343.833344 1024.992798,682.166687 1025.093140,1020.500000 
	C1025.094238,1024.249146 1024.249512,1025.097900 1020.499939,1025.094482 
	C896.166687,1024.980469 771.833313,1025.000000 647.000000,1025.000000 
z"/>
<path fill="#7D41B6" opacity="1.000000" stroke="none" 
	d="
M503.169189,217.008377 
	C508.941010,212.095734 515.191406,211.893509 522.935181,216.506989 
	C523.253235,217.134476 523.442139,217.424957 523.876404,217.857544 
	C524.071472,218.032333 523.969604,218.027054 523.972107,217.976074 
	C524.201904,218.189194 524.440002,218.443176 524.892700,218.850739 
	C525.095093,219.015930 525.014160,218.975235 525.034607,218.934814 
	C526.247620,221.142136 526.956299,223.577438 526.941711,226.080185 
	C526.877686,237.063568 527.427368,248.055023 526.917603,259.336456 
	C532.699707,262.428955 538.786682,261.982635 544.572571,262.739990 
	C609.552612,271.245789 665.525940,297.755188 710.766479,345.661072 
	C745.902283,382.867035 768.405151,426.702118 778.558105,476.858704 
	C779.480225,481.413849 780.279419,486.008179 780.833435,490.620636 
	C782.005432,500.376862 772.970947,507.204956 763.886230,503.402039 
	C761.467224,502.389404 759.252441,500.805573 757.089172,499.278259 
	C737.335876,485.332092 715.602051,478.145020 691.326660,481.183563 
	C670.987366,483.729431 653.778564,493.076172 639.435974,507.654327 
	C635.000977,512.162170 630.922974,516.978882 627.279907,522.192017 
	C621.119202,531.007935 609.613159,531.210754 603.191223,522.559814 
	C589.057617,503.520538 570.717468,490.318176 548.344421,482.722626 
	C541.605835,480.434906 534.656555,478.797668 527.246216,478.820984 
	C526.111145,480.481567 526.519104,482.025970 526.518799,483.488495 
	C526.498169,570.903809 526.499207,658.319153 526.500061,745.734436 
	C526.500061,746.567017 526.497314,747.399536 526.934509,748.575684 
	C529.284973,759.878296 534.003662,769.267090 542.969116,776.230164 
	C558.360657,788.184021 575.145630,786.803162 588.815186,773.901672 
	C590.380676,772.424011 591.841919,770.835999 593.633667,769.125366 
	C594.187256,768.750427 594.447083,768.535461 594.854248,768.108887 
	C595.014954,767.913452 595.019714,768.017761 594.967529,768.020264 
	C595.188782,767.797546 595.446411,767.555481 595.834351,767.075928 
	C595.978088,766.852905 595.999207,767.000305 595.925476,767.010742 
	C596.451172,766.603760 596.486511,765.905396 596.768188,764.975098 
	C596.827698,764.650085 596.838623,764.920837 596.703247,764.925903 
	C599.546265,759.809021 601.856323,754.467224 601.999146,747.976685 
	C602.112976,737.271118 601.636597,726.991089 602.738892,716.306030 
	C602.927063,715.876160 602.943298,715.939575 602.910645,715.936768 
	C603.811340,715.298767 603.368164,713.793457 604.720459,713.038940 
	C604.902832,712.770142 605.001831,712.899048 604.937256,712.948425 
	C605.172302,712.796753 605.443542,712.562622 605.834717,712.072021 
	C605.979370,711.844482 605.989319,712.001648 605.910706,712.006470 
	C606.403015,711.631653 606.486084,711.001160 606.812866,710.148315 
	C606.971985,709.882446 606.969055,709.968872 606.925842,709.967285 
	C611.026550,707.124512 615.534241,706.321472 620.828247,707.686768 
	C621.251526,707.821167 621.061462,707.922791 621.010742,707.827698 
	C621.921570,708.833923 623.528809,708.696350 624.898193,709.768799 
	C629.084717,712.276123 630.465759,716.026672 630.936890,720.643433 
	C630.033081,728.717957 630.690247,736.426819 630.678406,744.546936 
	C630.739319,782.287354 600.769470,811.552856 567.969055,813.272095 
	C531.739441,815.170959 500.395355,784.443481 499.063843,748.403015 
	C499.732605,746.698425 499.489685,745.344116 499.489838,744.028442 
	C499.501007,656.489868 499.500519,568.951294 499.497894,481.412689 
	C499.497864,480.416077 499.558411,479.413574 498.866882,478.194031 
	C492.300995,479.349579 486.055939,480.373169 480.057587,482.204712 
	C457.126434,489.206390 438.159119,502.062805 423.684296,521.313232 
	C416.000427,531.532166 405.498749,531.440247 397.755249,521.074158 
	C384.822784,503.761749 369.074890,490.232635 347.953491,483.840637 
	C340.579163,481.608917 333.065857,480.559998 324.975006,480.359619 
	C324.598633,480.069763 324.636292,479.908569 324.673981,479.747406 
	C325.299805,479.977112 325.752625,479.957581 325.110260,479.782379 
	C322.879547,479.173950 320.634613,479.673523 318.457764,479.995728 
	C317.576050,480.508789 316.633057,480.695282 315.328979,480.856995 
	C313.385437,480.291809 311.797943,480.359985 309.962646,481.039978 
	C298.194000,484.469086 286.742401,487.848083 276.550171,494.384094 
	C273.470703,496.358856 270.488586,498.486084 267.472717,500.559265 
	C262.245148,504.152954 256.784241,506.252686 250.793762,502.462036 
	C245.051697,498.828583 245.127777,493.165131 245.919571,487.335571 
	C250.041367,456.989594 260.083771,428.556763 274.462311,401.689575 
	C300.777832,352.517395 338.982880,315.348114 388.882477,290.385864 
	C417.959900,275.839935 448.584991,266.250885 481.027466,262.837189 
	C486.456482,262.265930 491.870453,261.551392 497.706543,260.917145 
	C499.348846,259.330292 498.977203,257.448425 498.983887,255.661438 
	C499.019043,246.231476 498.999359,236.801331 499.000153,227.371246 
	C499.000366,224.717438 499.012878,222.068115 500.755310,219.314377 
	C500.984985,218.912094 501.009674,218.996201 500.967651,219.008606 
	C501.191132,218.794739 501.446289,218.557358 501.861023,218.109756 
	C502.032532,217.912308 502.042206,218.020767 501.987976,218.025696 
	C502.242462,217.733322 502.565735,217.452789 503.169189,217.008377 
z"/>
<path fill="#935FC3" opacity="1.000000" stroke="none" 
	d="
M527.308960,748.460205 
	C525.812256,747.057800 526.029175,744.847290 526.028992,742.692139 
	C526.021423,656.384583 526.016968,570.077026 526.034424,483.769501 
	C526.034729,482.305573 525.646667,480.760406 526.786926,479.249512 
	C527.144775,493.094147 527.374146,507.079193 527.377258,521.064331 
	C527.394104,596.708923 527.355042,672.353455 527.308960,748.460205 
z"/>
<path fill="#955FC4" opacity="1.000000" stroke="none" 
	d="
M498.513000,478.424438 
	C499.979645,479.739319 499.973572,481.900726 499.973450,484.085388 
	C499.968353,570.317078 499.974854,656.548767 499.953430,742.780457 
	C499.953064,744.260193 499.629913,745.739746 499.286377,747.590576 
	C498.003876,729.341309 498.666046,710.702393 498.637756,692.074097 
	C498.529816,621.014160 498.593597,549.953979 498.513000,478.424438 
z"/>
<path fill="#8F5CBF" opacity="1.000000" stroke="none" 
	d="
M500.696564,219.140045 
	C498.891998,230.526489 500.527771,242.246063 499.982574,253.903168 
	C499.878448,256.129395 500.659637,258.581055 498.380798,260.680298 
	C499.095123,249.743195 498.314606,238.536407 498.452209,227.339279 
	C498.487183,224.490646 498.552856,221.732010 500.696564,219.140045 
z"/>
<path fill="#8F5CBF" opacity="1.000000" stroke="none" 
	d="
M527.333374,259.258972 
	C525.005127,258.492859 526.136230,256.418030 526.065735,254.793900 
	C525.559082,243.117432 526.923279,231.391769 525.097900,219.319885 
	C527.355774,220.998764 527.596436,223.857834 527.601013,226.646561 
	C527.618652,237.389175 527.492615,248.132019 527.333374,259.258972 
z"/>
<path fill="#8F5EB9" opacity="1.000000" stroke="none" 
	d="
M602.755249,748.530518 
	C601.939758,754.483521 601.097900,760.080322 596.883423,764.740112 
	C603.140259,753.303528 601.809937,740.545532 601.854309,727.983887 
	C601.861328,725.990173 601.878296,723.996399 601.974609,721.620483 
	C603.095459,730.179565 602.151489,739.157532 602.755249,748.530518 
z"/>
<path fill="#8E63B9" opacity="1.000000" stroke="none" 
	d="
M602.967163,748.487244 
	C600.980896,740.069763 602.500916,731.071411 602.055115,721.688843 
	C601.826233,719.631897 601.770691,718.039612 602.682251,716.190674 
	C602.944702,726.592102 602.962341,737.308044 602.967163,748.487244 
z"/>
<path fill="#935FC3" opacity="1.000000" stroke="none" 
	d="
M630.906799,744.510010 
	C629.369263,737.253418 629.800232,729.512695 630.702393,721.399902 
	C630.920715,728.704224 630.958679,736.377014 630.906799,744.510010 
z"/>
<path fill="#8E63B9" opacity="1.000000" stroke="none" 
	d="
M620.989929,707.551880 
	C616.653870,708.035828 611.970337,707.663147 607.268799,709.887146 
	C610.986450,706.432373 615.632507,705.697083 620.989929,707.551880 
z"/>
<path fill="#955FC4" opacity="1.000000" stroke="none" 
	d="
M318.668121,480.390564 
	C317.419037,479.013916 318.609985,479.071136 319.339813,479.063568 
	C323.104767,479.024658 326.870300,479.045502 330.648132,479.599670 
	C328.896149,479.741455 327.144165,479.883240 324.976562,480.127991 
	C323.761871,480.279602 322.962799,480.328278 321.882629,480.258026 
	C321.231110,480.229858 320.860657,480.320740 319.929810,480.296265 
	C319.254211,480.410858 319.070160,480.503448 318.668121,480.390564 
z"/>
<path fill="#8E63B9" opacity="1.000000" stroke="none" 
	d="
M625.018799,709.627197 
	C623.782532,709.755127 622.496582,709.270874 621.211670,707.979309 
	C622.489014,707.687195 623.627075,708.582825 625.018799,709.627197 
z"/>
<path fill="#8F5CBF" opacity="1.000000" stroke="none" 
	d="
M310.162384,481.313599 
	C311.128967,480.234863 312.643921,479.808350 314.657776,480.675720 
	C313.514191,481.001343 312.060547,481.170471 310.162384,481.313599 
z"/>
<path fill="#8E63B9" opacity="1.000000" stroke="none" 
	d="
M604.571289,712.852539 
	C604.386658,713.686157 603.870483,714.602234 603.116211,715.726135 
	C602.841980,714.711853 603.518250,713.813171 604.571289,712.852539 
z"/>
<path fill="#8F5EB9" opacity="1.000000" stroke="none" 
	d="
M596.525391,764.848755 
	C596.597595,765.249451 596.367493,765.848816 595.994568,766.734680 
	C595.379395,766.251160 595.893494,765.666626 596.525391,764.848755 
z"/>
<path fill="#8E63B9" opacity="1.000000" stroke="none" 
	d="
M606.667786,710.048340 
	C606.703979,710.423828 606.435974,710.965210 606.000000,711.758911 
	C605.347656,711.216553 605.953125,710.744263 606.667786,710.048340 
z"/>
<path fill="#8E63B9" opacity="1.000000" stroke="none" 
	d="
M605.630432,711.803955 
	C605.730347,712.097900 605.481323,712.351318 605.052490,712.801270 
	C605.008972,712.586304 605.145264,712.174866 605.630432,711.803955 
z"/>
<path fill="#7D41B6" opacity="1.000000" stroke="none" 
	d="
M319.625061,480.349548 
	C319.740448,480.155518 320.111542,480.130035 321.042084,480.121826 
	C321.027954,480.265442 320.454346,480.391785 319.625061,480.349548 
z"/>
<path fill="#8F5EB9" opacity="1.000000" stroke="none" 
	d="
M595.646484,766.828735 
	C595.732178,767.104797 595.486328,767.356689 595.077881,767.815674 
	C595.048584,767.616699 595.181702,767.210632 595.646484,766.828735 
z"/>
<path fill="#8F5EB9" opacity="1.000000" stroke="none" 
	d="
M594.732666,767.949585 
	C594.769714,768.143311 594.524475,768.373169 594.097534,768.777222 
	C594.094055,768.629578 594.272217,768.307678 594.732666,767.949585 
z"/>
<path fill="#8F5CBF" opacity="1.000000" stroke="none" 
	d="
M525.016479,218.738373 
	C524.853638,218.765320 524.612244,218.514725 524.172729,218.094620 
	C524.295654,218.103668 524.616760,218.282242 525.016479,218.738373 
z"/>
<path fill="#8F5CBF" opacity="1.000000" stroke="none" 
	d="
M501.754211,217.981689 
	C501.783630,218.154404 501.534698,218.396484 501.105682,218.829803 
	C501.109009,218.697708 501.292419,218.374390 501.754211,217.981689 
z"/>
<path fill="#8F5CBF" opacity="1.000000" stroke="none" 
	d="
M524.038147,217.749512 
	C523.865173,217.754898 523.658813,217.477448 523.283569,217.005692 
	C523.411316,217.029800 523.708069,217.248245 524.038147,217.749512 
z"/>
<path fill="#8F5CBF" opacity="1.000000" stroke="none" 
	d="
M503.084045,216.895676 
	C503.078461,217.073242 502.722107,217.318787 502.149750,217.797485 
	C502.200226,217.674957 502.466736,217.319305 503.084045,216.895676 
z"/>
<path fill="#06090F" opacity="1.000000" stroke="none" 
	d="
M528.684082,291.527954 
	C580.181702,295.717438 626.189209,313.017181 666.243591,345.301331 
	C702.008118,374.127777 726.623596,410.914368 742.527405,453.766266 
	C742.814087,454.538635 742.956970,455.371094 743.099976,456.187225 
	C743.177551,456.630219 743.113770,457.097961 743.113770,457.832336 
	C736.236816,456.312592 729.487671,454.821106 722.348145,453.281494 
	C718.671692,453.894501 715.554871,452.326538 711.851074,452.500153 
	C704.578247,452.473846 697.759827,452.552948 690.500610,452.309265 
	C672.084534,453.392395 655.767944,459.529968 640.563904,468.930573 
	C631.886047,474.296051 624.034790,480.710236 617.132690,488.204865 
	C615.114929,490.395782 614.021484,490.702789 611.761902,488.454407 
	C590.225708,467.025543 564.423279,453.436249 534.368469,449.293640 
	C499.101562,444.432587 465.877838,450.868896 435.767181,470.728027 
	C426.990173,476.516815 418.969330,483.212463 411.401062,490.869385 
	C405.925079,485.001740 400.335358,479.550812 393.567505,474.988220 
	C392.907867,474.770538 392.603821,474.583801 392.165924,474.128662 
	C391.994446,473.920166 392.016113,473.982666 392.045227,473.967041 
	C391.578064,473.569061 390.954224,473.513916 390.179871,473.081146 
	C389.966003,472.866089 389.958557,473.000732 390.025879,473.004517 
	C389.810516,472.789673 389.546265,472.550415 389.129944,472.085052 
	C388.961731,471.876801 389.079926,472.016571 389.149872,471.957520 
	C388.640594,471.654541 388.031189,471.506409 387.200806,471.120239 
	C386.972260,470.906128 386.985229,471.018585 387.041443,471.012146 
	C386.813110,470.788605 386.545776,470.552185 386.130920,470.083984 
	C385.963409,469.874634 386.019440,470.014618 386.089447,469.986664 
	C385.615936,469.612732 384.979889,469.511749 384.169464,469.062378 
	C383.949646,468.834259 384.122192,469.010651 384.210419,468.924438 
	C383.665588,468.693695 383.045013,468.503693 382.191986,468.094788 
	C381.962341,467.865601 381.961945,468.005951 382.032104,468.006226 
	C381.815155,467.790649 381.547455,467.552856 381.135010,467.080109 
	C380.970886,466.866974 381.028168,466.992188 381.090759,466.963501 
	C379.936371,466.317291 378.806427,465.500153 377.185669,465.040039 
	C376.964813,464.777557 377.104309,464.968109 377.199524,464.898285 
	C375.928284,464.497162 374.846985,463.439606 373.179871,463.031616 
	C372.954895,462.762268 373.023224,462.988220 373.136169,462.953979 
	C372.644409,462.653961 371.997681,462.510071 371.167084,462.026794 
	C370.952332,461.776978 371.147797,461.944702 371.231598,461.846924 
	C369.649994,461.324768 368.059906,460.650238 366.184753,459.953735 
	C365.986664,459.642700 366.119110,459.860291 366.227722,459.793762 
	C364.648926,459.349121 363.057129,458.650299 361.205872,457.919006 
	C361.034790,457.590088 361.075012,457.789124 361.174438,457.768585 
	C356.324799,456.653381 351.563232,454.740784 346.198181,454.039734 
	C345.943604,453.729279 346.045135,453.919800 346.140320,453.868866 
	C332.246490,451.229980 318.248627,451.265808 303.817261,453.792450 
	C303.391815,453.909149 303.358459,453.618530 303.213074,453.634766 
	C297.199219,455.483398 291.122131,456.500671 285.224060,458.216522 
	C282.955780,458.876373 282.084137,457.938965 282.502167,455.744385 
	C282.777313,454.299896 283.385162,452.929321 284.022766,451.242859 
	C284.396027,451.013367 284.144348,451.051086 284.163513,451.176880 
	C284.306030,450.664398 284.495422,450.043701 284.928986,449.210236 
	C285.174133,448.997711 285.055176,449.048035 285.080505,449.107452 
	C285.707123,447.288300 286.187500,445.377075 286.934937,443.226013 
	C287.222229,442.991699 287.053986,443.167664 287.142029,443.251709 
	C287.653076,441.714447 288.804321,440.299835 288.857391,438.240021 
	C289.112549,437.978912 288.970917,438.157959 289.060364,438.228851 
	C289.313110,437.661987 289.494202,437.029419 289.937439,436.178162 
	C290.177582,435.953125 289.984192,436.126038 290.070587,436.222778 
	C290.299469,435.670868 290.495789,435.037262 290.929443,434.171204 
	C291.165649,433.938416 291.003418,434.129852 291.099091,434.210999 
	C291.578888,432.985779 292.094452,431.728943 292.888245,430.257019 
	C293.145264,430.033997 293.062195,430.051819 293.071289,430.093323 
	C293.662537,429.324615 293.398529,428.337006 293.893921,427.216858 
	C294.145782,426.977936 294.013214,427.117065 294.082825,427.183289 
	C294.342560,426.640076 294.492493,426.018860 294.921692,425.192383 
	C295.153900,424.973389 294.996368,424.992859 295.006042,425.071655 
	C295.161804,424.845886 295.367676,424.589355 295.852478,424.263855 
	C296.071564,424.146881 296.132874,424.121399 296.118073,424.091675 
	C296.678589,423.273438 296.387268,422.305054 296.886841,421.213379 
	C297.128540,420.976166 296.993591,420.991028 297.000916,421.058533 
	C297.205658,420.826782 297.437073,420.556335 297.917114,420.156799 
	C298.136536,420.003113 298.021118,420.031281 298.035278,420.088959 
	C298.383911,419.615479 298.490112,419.001465 298.887634,418.191650 
	C299.098145,417.966461 298.986633,418.012054 299.009369,418.067841 
	C299.393341,417.610229 299.487213,416.992615 299.940826,416.234863 
	C300.185425,416.049866 300.096527,416.077576 300.110657,416.121948 
	C300.668884,414.909546 301.498016,413.773834 302.014984,412.189728 
	C302.298798,411.994537 302.072693,412.112427 302.131836,412.225403 
	C302.272919,411.685822 302.500214,411.069275 302.893372,410.205139 
	C303.124359,409.973694 302.991974,409.995819 303.002960,410.062012 
	C303.208344,409.828003 303.436157,409.555756 303.918640,409.161438 
	C304.139801,409.011353 304.048218,409.050232 304.067780,409.095978 
	C304.801483,407.941742 305.014374,406.514069 306.139221,405.240356 
	C306.468994,405.129852 306.256348,405.201263 306.292664,405.307373 
	C306.154968,404.099426 307.269073,403.391998 308.047485,402.207153 
	C308.341125,402.026062 308.132294,401.883301 308.060760,401.987610 
	C308.201019,401.810547 308.443939,401.558899 308.928528,401.180725 
	C319.003784,387.004272 329.358368,373.389282 341.649109,361.351440 
	C378.021515,325.727478 421.342957,303.689362 471.465271,295.002563 
	C478.663239,293.755066 485.937103,292.945496 493.587097,291.801971 
	C494.698700,291.261536 495.454102,291.045258 496.668457,291.012878 
	C498.170837,291.008911 499.254608,290.908386 500.722839,290.524994 
	C508.342590,290.494110 515.540833,290.502777 523.159363,290.501160 
	C524.134033,290.486481 524.679688,290.547180 525.605591,290.792847 
	C526.782898,291.006348 527.585144,291.039062 528.684082,291.527954 
z"/>
<path fill="#8F5EB9" opacity="1.000000" stroke="none" 
	d="
M303.874817,453.923767 
	C307.581360,452.210083 312.042328,451.875641 316.448669,451.790863 
	C326.211426,451.602966 336.012604,451.133087 345.951172,453.543823 
	C339.668182,453.547577 333.098175,453.329529 326.534271,452.993011 
	C319.107697,452.612183 311.746918,453.561249 303.874817,453.923767 
z"/>
<path fill="#8F5EB9" opacity="1.000000" stroke="none" 
	d="
M284.133057,451.259460 
	C282.473145,458.370819 282.456482,458.305756 289.718292,456.447601 
	C293.848999,455.390656 298.044708,454.587769 302.639435,453.660736 
	C297.370392,456.915710 290.775635,457.180511 284.666229,459.079102 
	C282.334290,459.803833 281.404602,458.008636 281.702332,455.839203 
	C281.928284,454.192657 282.537994,452.644470 284.133057,451.259460 
z"/>
<path fill="#8F5CBF" opacity="1.000000" stroke="none" 
	d="
M528.771973,291.448303 
	C528.240295,291.752136 527.449402,291.787811 526.267212,291.765289 
	C525.567871,291.525909 525.257690,291.348663 524.680420,291.214844 
	C516.794250,291.272705 509.173096,291.290955 501.130249,291.362854 
	C499.725983,291.149475 498.772949,291.637177 497.437927,291.623535 
	C496.307159,291.748352 495.535126,291.780090 494.380676,291.741272 
	C494.872498,290.524567 496.067078,290.061646 497.468872,290.063232 
	C506.915833,290.073822 516.363037,290.059021 525.809326,290.148102 
	C526.713623,290.156616 527.611755,290.820526 528.771973,291.448303 
z"/>
<path fill="#935FC3" opacity="1.000000" stroke="none" 
	d="
M690.432007,452.322937 
	C697.061829,451.351593 704.083557,451.763672 711.552429,451.956543 
	C712.223145,452.242828 712.441162,452.396881 712.302856,452.733643 
	C704.898743,452.795898 697.833496,453.530640 690.432007,452.322937 
z"/>
<path fill="#8F5EB9" opacity="1.000000" stroke="none" 
	d="
M346.249268,453.954376 
	C351.056427,454.139496 355.846649,455.908936 361.007202,457.494812 
	C356.103455,457.647797 351.248108,456.248077 346.249268,453.954376 
z"/>
<path fill="#8F5EB9" opacity="1.000000" stroke="none" 
	d="
M712.349609,452.970337 
	C711.946594,452.916351 711.976868,452.502625 711.991028,452.295685 
	C715.056763,452.402649 718.108398,452.716522 721.558899,453.131927 
	C718.853760,454.733917 715.811646,453.505463 712.349609,452.970337 
z"/>
<path fill="#8F5EB9" opacity="1.000000" stroke="none" 
	d="
M286.991394,443.270782 
	C287.424561,445.087952 286.227570,446.785858 285.358765,448.908020 
	C285.054291,447.116882 285.200592,445.125153 286.991394,443.270782 
z"/>
<path fill="#8F5EB9" opacity="1.000000" stroke="none" 
	d="
M366.247925,459.907135 
	C367.596832,460.171814 369.206970,460.700928 371.066284,461.489594 
	C369.488617,461.907898 367.828522,461.558777 366.247925,459.907135 
z"/>
<path fill="#8F5EB9" opacity="1.000000" stroke="none" 
	d="
M361.286804,457.866821 
	C362.636322,458.129333 364.237823,458.668549 366.087860,459.467529 
	C364.507538,459.894958 362.831482,459.599915 361.286804,457.866821 
z"/>
<path fill="#8F5EB9" opacity="1.000000" stroke="none" 
	d="
M292.865234,430.243713 
	C292.667419,431.302032 292.189575,432.570068 291.453247,434.065125 
	C291.109406,432.813782 291.350189,431.453522 292.865234,430.243713 
z"/>
<path fill="#8F5EB9" opacity="1.000000" stroke="none" 
	d="
M306.163910,405.315674 
	C305.846436,406.324677 305.223877,407.519531 304.344330,408.928040 
	C304.158783,407.675720 304.415894,406.300079 306.163910,405.315674 
z"/>
<path fill="#8F5EB9" opacity="1.000000" stroke="none" 
	d="
M288.923035,438.273346 
	C289.514618,439.835785 288.340240,441.275940 287.522522,443.111725 
	C287.273773,441.602173 287.770172,440.011353 288.923035,438.273346 
z"/>
<path fill="#8F5EB9" opacity="1.000000" stroke="none" 
	d="
M377.217712,465.008667 
	C378.456421,464.764587 379.555267,465.670197 380.943665,466.661896 
	C379.751007,466.749451 378.475677,466.288208 377.217712,465.008667 
z"/>
<path fill="#8F5EB9" opacity="1.000000" stroke="none" 
	d="
M373.213867,462.999390 
	C374.263062,463.261871 375.571259,463.761475 377.087097,464.544769 
	C375.818329,464.783905 374.541809,464.259369 373.213867,462.999390 
z"/>
<path fill="#8F5EB9" opacity="1.000000" stroke="none" 
	d="
M302.056152,412.240784 
	C301.747589,413.241699 301.196381,414.488861 300.384979,415.951172 
	C300.227631,414.728760 300.733124,413.475922 302.056152,412.240784 
z"/>
<path fill="#8F5EB9" opacity="1.000000" stroke="none" 
	d="
M308.050720,402.220947 
	C307.851105,403.019470 307.361115,404.012909 306.600037,405.209930 
	C306.309235,404.177032 306.676147,403.125183 308.050720,402.220947 
z"/>
<path fill="#8F5EB9" opacity="1.000000" stroke="none" 
	d="
M293.992920,427.276184 
	C294.648651,428.008484 293.930511,428.796387 293.346222,429.899231 
	C293.333618,429.281342 293.586853,428.427856 293.992920,427.276184 
z"/>
<path fill="#8F5EB9" opacity="1.000000" stroke="none" 
	d="
M296.968506,421.264404 
	C297.537231,421.968323 296.934448,422.743622 296.337799,423.816254 
	C296.338348,423.225525 296.573395,422.389069 296.968506,421.264404 
z"/>
<path fill="#8F5EB9" opacity="1.000000" stroke="none" 
	d="
M290.029846,436.235596 
	C290.037354,436.616394 289.897095,437.279663 289.453369,438.121338 
	C289.393951,437.705872 289.638031,437.111969 290.029846,436.235596 
z"/>
<path fill="#8F5EB9" opacity="1.000000" stroke="none" 
	d="
M390.223083,473.008240 
	C390.553375,473.049286 391.140717,473.232483 391.901245,473.683533 
	C391.542969,473.684357 391.011566,473.417358 390.223083,473.008240 
z"/>
<path fill="#8F5EB9" opacity="1.000000" stroke="none" 
	d="
M387.242188,471.051544 
	C387.595459,471.051849 388.218628,471.197571 389.030823,471.620880 
	C388.650604,471.664642 388.081360,471.430786 387.242188,471.051544 
z"/>
<path fill="#8F5EB9" opacity="1.000000" stroke="none" 
	d="
M302.994293,410.260803 
	C303.002747,410.622589 302.881134,411.271515 302.475250,412.129395 
	C302.415375,411.741547 302.639771,411.144745 302.994293,410.260803 
z"/>
<path fill="#8F5EB9" opacity="1.000000" stroke="none" 
	d="
M384.215393,468.991089 
	C384.560730,469.027466 385.171814,469.220703 385.971191,469.686340 
	C385.600006,469.688446 385.040588,469.418152 384.215393,468.991089 
z"/>
<path fill="#8F5EB9" opacity="1.000000" stroke="none" 
	d="
M382.243286,468.004913 
	C382.605865,467.999786 383.249359,468.133972 384.095764,468.553162 
	C383.707184,468.606873 383.115723,468.375549 382.243286,468.004913 
z"/>
<path fill="#8F5EB9" opacity="1.000000" stroke="none" 
	d="
M300.001251,416.284729 
	C299.964325,416.615265 299.743225,417.180634 299.277100,417.934814 
	C299.293762,417.588959 299.555420,417.054291 300.001251,416.284729 
z"/>
<path fill="#8F5EB9" opacity="1.000000" stroke="none" 
	d="
M298.939117,418.225342 
	C298.912537,418.560974 298.726929,419.155487 298.295349,419.948303 
	C298.292969,419.592499 298.536530,419.038330 298.939117,418.225342 
z"/>
<path fill="#8F5EB9" opacity="1.000000" stroke="none" 
	d="
M371.226929,461.941772 
	C371.592102,461.966125 372.231873,462.155273 373.060394,462.632080 
	C372.666626,462.648682 372.084076,462.377625 371.226929,461.941772 
z"/>
<path fill="#8F5EB9" opacity="1.000000" stroke="none" 
	d="
M295.042236,425.262451 
	C295.631775,425.734955 295.138275,426.336639 294.489014,427.108826 
	C294.411774,426.683533 294.671173,426.117523 295.042236,425.262451 
z"/>
<path fill="#8F5EB9" opacity="1.000000" stroke="none" 
	d="
M291.013123,434.222015 
	C291.019531,434.597656 290.873413,435.256927 290.442139,436.117859 
	C290.391510,435.714874 290.626038,435.110260 291.013123,434.222015 
z"/>
<path fill="#8F5EB9" opacity="1.000000" stroke="none" 
	d="
M285.002075,449.264038 
	C285.027435,449.638794 284.880707,450.279907 284.458374,451.111847 
	C284.398468,450.711945 284.614227,450.121155 285.002075,449.264038 
z"/>
<path fill="#8F5EB9" opacity="1.000000" stroke="none" 
	d="
M392.212708,474.072998 
	C392.311035,474.095734 392.627655,474.271332 393.094177,474.676392 
	C392.973053,474.679230 392.702026,474.452545 392.212708,474.072998 
z"/>
<path fill="#8F5EB9" opacity="1.000000" stroke="none" 
	d="
M389.165771,472.048096 
	C389.316193,472.050110 389.670624,472.223419 390.059143,472.702545 
	C389.852081,472.745361 389.610962,472.482361 389.165771,472.048096 
z"/>
<path fill="#8F5EB9" opacity="1.000000" stroke="none" 
	d="
M386.160645,470.055084 
	C386.328247,470.046204 386.693115,470.217773 387.077820,470.697540 
	C386.851074,470.748993 386.604492,470.492279 386.160645,470.055084 
z"/>
<path fill="#8F5EB9" opacity="1.000000" stroke="none" 
	d="
M381.172058,467.044556 
	C381.349274,467.036407 381.727661,467.205811 382.104187,467.690857 
	C381.859283,467.745056 381.616241,467.483612 381.172058,467.044556 
z"/>
<path fill="#8F5EB9" opacity="1.000000" stroke="none" 
	d="
M295.897339,424.313721 
	C295.921021,424.510651 295.770508,424.874420 295.317871,425.194305 
	C295.248322,424.923798 295.484131,424.700500 295.897339,424.313721 
z"/>
<path fill="#8F5EB9" opacity="1.000000" stroke="none" 
	d="
M297.953674,420.195923 
	C297.971802,420.385498 297.807037,420.767853 297.325287,421.138123 
	C297.262451,420.880249 297.516632,420.634491 297.953674,420.195923 
z"/>
<path fill="#8F5EB9" opacity="1.000000" stroke="none" 
	d="
M303.953949,409.199738 
	C303.973022,409.385956 303.806244,409.760559 303.326721,410.131683 
	C303.265320,409.881500 303.516724,409.634827 303.953949,409.199738 
z"/>
<path fill="#8F5EB9" opacity="1.000000" stroke="none" 
	d="
M308.950500,401.205444 
	C308.954437,401.363861 308.765686,401.699341 308.283081,402.063354 
	C308.245422,401.855438 308.501617,401.618958 308.950500,401.205444 
z"/>
<path fill="#7D41B6" opacity="1.000000" stroke="none" 
	d="
M497.439697,291.818481 
	C498.041992,291.570007 499.004791,291.423492 500.338074,291.346741 
	C499.739105,291.584473 498.769653,291.752441 497.439697,291.818481 
z"/>
<path fill="#7D41B6" opacity="1.000000" stroke="none" 
	d="
M524.607300,291.457214 
	C524.749634,291.329102 525.083923,291.403717 525.646973,291.592712 
	C525.516907,291.691376 525.158081,291.675690 524.607300,291.457214 
z"/>
</svg>